<svg width="50" height="47" viewBox="0 0 50 47" xmlns="http://www.w3.org/2000/svg">
<path d="M48.5119 33.9428C49.2824 33.8968 49.8948 33.1978 49.8948 32.3399C49.8948 27.7144 46.5112 24.0912 42.1918 24.0912H40.7643L39.0196 15.0039C40.7032 14.2012 41.8841 12.3579 41.8841 10.2165C41.8841 7.34014 39.7541 5 37.1359 5H30.3864C29.5784 5 28.9233 5.71968 28.9233 6.60739V8.60912H25.3268C24.5188 8.60912 23.8637 9.32881 23.8637 10.2165C23.8637 11.1042 24.5188 11.8239 25.3268 11.8239H28.9233V13.8256C28.9233 14.7133 29.5784 15.433 30.3864 15.433H31.036C29.8247 17.0049 29.092 19.0355 29.092 21.2517V30.3987C29.092 30.4456 29.0573 30.4837 29.0146 30.4837H23.1044C23.0704 30.4837 23.0399 30.4587 23.0302 30.4228L21.437 24.5074C22.721 24.1305 23.6699 22.8419 23.6699 21.3139C23.6699 17.6858 20.9832 14.7342 17.681 14.7342H4.49864C2.01817 14.7341 0 16.9514 0 19.6766C0 22.1681 1.68682 24.2337 3.87149 24.5702C1.55391 26.8477 0.0924807 30.1564 0.0924807 33.8334V38.8377C0.0924807 39.7254 0.74756 40.4451 1.55557 40.4451H2.82149C3.50294 44.1785 6.50958 47 10.1054 47C13.7012 47 16.7078 44.1785 17.3893 40.4451H35.2868C35.9682 44.1785 38.9749 47 42.5707 47C46.6672 47 50 43.3384 50 38.8377C50.0001 37.0027 49.4458 35.3075 48.5119 33.9428V33.9428ZM46.7291 30.7325H43.4354C43.1516 30.6961 42.8634 30.6754 42.5708 30.6754C42.0464 30.6754 41.5348 30.7362 41.0409 30.8502V27.306H42.1919C44.3347 27.306 46.1062 28.7212 46.7291 30.7325V30.7325ZM31.8494 8.21467H37.1359C38.1406 8.21467 38.958 9.11267 38.958 10.2164C38.958 11.3201 38.1406 12.2181 37.1359 12.2181H31.8494V8.21467ZM23.1045 33.6983H29.0147C30.6709 33.6983 32.0181 32.2181 32.0181 30.3986V21.2516C32.0181 18.4888 33.7843 16.1705 36.1415 15.5883L38.1148 25.8659V32.3108C36.683 33.4938 35.6518 35.2311 35.2869 37.2302H20.741C20.0577 31.4631 15.7176 27.1483 10.3006 27.1483C7.88507 27.1483 5.71652 28.0142 4.00557 29.5026C5.41886 26.5994 8.20519 24.6193 11.4056 24.6193H18.416L20.2247 31.3349C20.5994 32.7265 21.7836 33.6983 23.1045 33.6983ZM3.13751 37.2302C3.39317 35.5201 4.05889 33.9776 5.07696 32.7823C6.40577 31.2222 8.26086 30.363 10.3004 30.363C14.0741 30.363 17.1226 33.273 17.7771 37.2301H3.13751V37.2302ZM4.49864 21.4045C3.63155 21.4045 2.92608 20.6294 2.92608 19.6766C2.92608 18.7239 3.63155 17.9488 4.49864 17.9488H17.681C19.3699 17.9488 20.7438 19.4582 20.7438 21.3137C20.7313 21.3798 20.6348 21.4236 20.4552 21.4043C19.238 21.4043 19.586 21.4043 19.3325 21.4043C17.5843 21.4045 4.50714 21.4045 4.49864 21.4045V21.4045ZM10.1054 43.7851C8.13439 43.7851 6.45626 42.3862 5.84747 40.445H14.3633C13.7545 42.3862 12.0764 43.7851 10.1054 43.7851ZM42.5708 43.7851C40.0877 43.7851 38.0676 41.5656 38.0676 38.8376C38.0676 36.1095 40.0878 33.8901 42.5708 33.8901C45.0539 33.8901 47.074 36.1095 47.074 38.8376C47.074 41.5656 45.0538 43.7851 42.5708 43.7851Z"/>
<path d="M42.5707 37.3275C43.3841 37.3275 44.0435 36.6674 44.0435 35.853C44.0435 35.0387 43.3841 34.3785 42.5707 34.3785C41.7573 34.3785 41.098 35.0387 41.098 35.853C41.098 36.6674 41.7573 37.3275 42.5707 37.3275Z"/>
<path d="M1.52443 9.64089H14.6463C15.4543 9.64089 16.1094 8.98503 16.1094 8.17605C16.1094 7.36707 15.4543 6.71121 14.6463 6.71121H1.52443C0.716418 6.71121 0.0613403 7.36707 0.0613403 8.17605C0.0613403 8.98503 0.716418 9.64089 1.52443 9.64089Z"/>
<path d="M6.38496 3.63827H19.6199C20.4279 3.63827 21.083 2.98241 21.083 2.17343C21.083 1.36445 20.4279 0.708588 19.6199 0.708588H6.38496C5.57695 0.708588 4.92188 1.36445 4.92188 2.17343C4.92188 2.98241 5.57695 3.63827 6.38496 3.63827Z"/>
</svg>
